
<svg xmlns="http://www.w3.org/2000/svg" version="1.1" xmlns:xlink="http://www.w3.org/1999/xlink" preserveAspectRatio="none" x="0px" y="0px" width="1366px" height="768px" viewBox="0 0 1366 768">
<defs>
<filter id="Filter_1" x="-20%" y="-20%" width="140%" height="140%" color-interpolation-filters="sRGB">
<feColorMatrix in="SourceGraphic" type="matrix" values="1 0 0 0 0 0 1 0 0 0 0 0 1 0 0 0 0 0 0.5 0" result="result1"/>
</filter>

<g id="Mask_Mask_Tween_9_0_Layer0_0_FILL">
<path fill="#FFFFFF" stroke="none" d="
M 240.7 1404.8
L 773.1 872.4 129.3 228.6 -403.1 761 240.7 1404.8 Z"/>
</g>

<g id="Symbol_1_0_Layer0_0_FILL">
<path fill="#43FECD" stroke="none" d="
M 675.85 169.65
Q 668.1 179.2 659.75 181.45 653.65 183.05 644.4 181 638.3 179.6 638.45 179.75 641.1 182.15 641.45 183 643.5 187.55 644.2 198.9 645.05 213.05 640.8 219.3 636.6 225.65 624.4 226.8 615.85 227.6 607.75 226 603.5 225.15 604.7 229 605.3 230.9 606.75 233
L 613.6 250.95
Q 620.2 270.85 618.75 280.65 616.95 293.35 613.65 299.1 609.85 305.85 602.25 307 595.55 308.05 588.95 303.1 586.9 301.6 585.15 299.65
L 583.75 298
Q 579.85 299 574.75 299.65 564.5 301 558.45 299.35 551.9 297.55 543.45 291.75 536.25 286.8 533.8 283.65 532.95 282.6 532.2 284 531.65 284.9 530.35 288.2 526.9 295.95 520.8 298 517.1 299.25 514.35 298 512.3 297 509.5 293.6 504.15 287.2 503.7 286.7 499.55 282.2 494.55 279 489.45 275.7 484.7 274.45 482.55 273.9 476.9 273.25 466.95 272.15 457.25 265 456.5 263.7 456 267.35 455.55 271.15 455.95 276.7 457.1 292.2 463.4 300.65 465.85 303.9 471.45 309.85 477 315.8 479.35 318.95 487.45 329.9 484.8 342 480.7 360.9 480.5 372.5 480.15 389.85 487.1 401 494.8 413.45 495.95 423 497.1 432.35 491.95 439.7 487.25 446.35 477.1 448.1 468.3 449.6 461.8 447 459.45 446.05 457.25 444 455.1 441.7 454.2 440.85 452.75 439.4 451.7 439.45 450.4 439.5 448.8 441.7 446.55 444.85 443.95 450.7 441 455.4 434.2 457.7 424.95 460.75 418.55 464.3 410.95 468.4 408.9 472.35 416.75 473.3 423.45 475.5 434.2 479.1 440.7 480.7 452 483.5 459.85 493.05 462.9 496.75 469.25 508.35 471.85 513.15 479.7 513.8 481.75 513.95 485.9 514.2 489.35 514.55 491.3 515.7 495.15 518 496.05 523.75 496.15 524.55 496.15 530.05 496.15 530.7 500.15 528.3 504.8 526.45 507.5 530.05 512.55 536.7 513.7 538.8 516.4 543.8 515.95 549.05 515.35 556.5 515.15 557.15 514.4 559.55 510.45 562.7 504.6 567.35 497.8 573.05
L 500.1 572.8
Q 503 572.65 505.95 573 515.4 574.1 522.1 579.7 530.7 586.95 536.6 586.6 543.6 586.25 552.6 576.05 563.4 563.8 568.85 559.9 576.3 554.55 585.05 555.05 592.95 555.45 598.55 558.95 601.35 560.7 602.55 562.35 604.25 556.3 608.5 548.15 617 531.9 629.8 521.7 637.7 515.4 648.1 511.95 658.95 508.4 668.5 509.45 679.1 510.55 685.35 517.25 692.5 524.85 693.05 538.7 692.35 583.25 691.85 599.7 691.15 621.55 689.8 636.05 688.85 643.75 687.3 651.6 686.6 655.95 688.2 657.4 690.2 659.25 695.45 656.3 700.75 653.3 700.85 649.7 699.15 639 697.6 624.8 694.45 596.45 695.65 564.05 696.95 529.5 706.3 519.35 709.8 515.55 715 514.55 716.65 514.25 723.85 514.05 731.5 513.8 739.8 524.55 746.25 532.85 752.7 547.05 757.85 558.3 762.4 560.6 766.2 562.5 776.4 560.35 788.35 557.9 796 558.7 806.7 559.8 815.3 567.05 824.25 574.6 842.05 580.6 858.45 586.1 869.5 586.35 877.5 586.25 885.5 581.4 889.45 578.95 891.85 576.55 885.7 573.45 880.1 568 868.9 557.15 871.75 545.7 874.65 534.05 883.2 530.95 885.95 529.95 891.3 529.2 897.55 528.35 900 527.7 907.05 525.9 910.5 518.7 910.95 517.75 912.95 512.5 914.45 508.75 915.85 506.7 919.25 501.8 926.85 497.35 933.35 493.5 941.5 490.7 951.25 487.35 976.85 481.55 962.5 471.35 956.4 467.5 948.95 462.75 946.15 461.65 939 458.8 929.5 459.7 915.65 460.95 907.1 457.35 895.55 452.45 894.45 439 893.35 425.2 899.8 413.25 905 403.55 914.55 396 924.85 387.95 927.4 384 931.2 378.05 924.65 374 919.6 371.15 917.25 369.6 913.1 366.9 911.1 364.15 905.7 356.85 911.65 343.35 917.35 330.4 933.4 305.75 941.4 293.4 948.3 283.65 941.5 286.6 933.45 289.5 917.4 295.35 911.35 295.35 904.85 295.35 900.65 292.6 897.7 290.6 896.1 287.35 895.15 285.45 888.9 289.45 878.95 295.8 875.35 297.35 861.55 303.2 852.75 305.5 836.85 309.65 831.2 304.65 828.95 302.7 826.15 299.55 823.85 297 822.95 296.45 820.45 294.95 815.65 301 810.1 307.95 807.35 310.4 804.65 312.75 799.75 315 791.45 318.85 787.3 317.55 779.75 315.2 779.95 298.35 780.2 281.55 785.15 262 788.45 248.95 791.95 240.65 793.6 236.9 793.25 236.1
L 792.6 236
Q 787 236.15 780.8 234.85 768.4 232.3 765.35 225 762.3 217.7 764.7 203.6
L 767.65 191
Q 765.2 193 761.55 194.75 754.25 198.25 748.2 197 740.35 195.4 731.6 184.45 721.85 172.25 713.8 151.65 705.9 131.45 701.8 115.05 698.3 101 698.55 94 695.15 116.8 690.15 135.45 683.45 160.25 675.85 169.65 Z"/>
</g>
</defs>

<mask id="Mask_Mask_1">
<g transform="matrix( 1, 0, 0, 1, 185,816.7) ">
<g transform="matrix( 1, 0, 0, 1, -185,-816.7) ">
<use xlink:href="#Mask_Mask_Tween_9_0_Layer0_0_FILL"/>
</g>
</g>
</mask>

<g mask="url(#Mask_Mask_1)">
<g transform="matrix( 1, 0, 0, 1, 408.9,94) ">
<g transform="matrix( 1, 0, 0, 1, -408.9,-94) ">
<use filter="url(#Filter_1)" xlink:href="#Symbol_1_0_Layer0_0_FILL"/>
</g>
</g>
</g>
</svg>
