<svg id="layers" xmlns="http://www.w3.org/2000/svg" viewBox="0 0 567.95 564">
  <title>logo</title>
  <path id="logo" d="M289.64,0c-3.58,23.69-11.34,61.66-22.7,75.68S245.86,89.34,235.48,87s-4.54-1.67-2.92,2,5.84,26.67-.65,36.34-26.27,8-33.08,6.67-1,7-1,7,14.27,32,12,47.67S204,211.36,193.31,213s-18.49-9-18.49-9-15.57,4-25.3,1.33S127.47,193,124.87,189.69s-2.27,10.67-13,14.34-10.7-9-26.27-19-19.14-.67-37.3-14c-1.95-3.33-3.57,22.67,6.16,35.67S80.11,228.7,75.9,248s-8.11,42.34,2.27,59S89.84,336,83,345.71,60.33,356,52.87,353s-8.43-11.67-13-5.33-3.57,12.33-14.6,16-22.38,9-25.3,14.67c13.95,1.67,14.27,4,31.79,8.33s24,19.34,28.54,27.67,15.89,3.67,22.06,7.33,4.87,13,4.87,14.34,6.81-6,11.35,0,9.08,11,8.43,19,.32,9-5.51,13.67-12.65,10.33-12.65,10.33,13.62-2.33,24.33,6.67,17.84,10.67,30.49-3.67,19.79-21.67,32.43-21,17.51,7.33,17.51,7.33,6.81-24.34,27.25-40.67,61.64-22,63.25,17c-.82,53.52-1.29,76.66-3.24,97.35-2,15.35-4.21,19-1.62,21.34s12.5-2.68,12.65-7.67-7.13-32.86-5.19-85.68,17-49.69,28.22-50,21.73,17.34,28.87,33,10.7,16,23.68,13.34,26.27-4,38.92,6.67,40.54,19,54.17,19.34c12.8-.23,22.38-9.81,22.38-9.81s-24.65-12.53-20.11-30.87,16.54-15,28.22-18,11-14,15.89-21,15.89-12.67,25.62-16,35.37-9.14,35.37-9.14-14.38-10.2-20.44-14.06-12.33-9.14-26.92-7.81-33.41-.67-35-20.67,9.08-34.34,20.11-43,19.79-16,10.05-22-22.06-10-13-30.67,36.65-59.67,36.65-59.67-27.25,11.67-37,11.67-13.62-4.67-15.24-8-10.7,5.67-20.76,10-35.35,15-44.11,7.33-8.11-13-15.57-3.67-9.41,11-15.89,14-20.11,9.33-19.79-16.67,9.41-51.67,12-57.67.65-4.67.65-4.67-22.38.67-27.25-11,2.27-34,2.27-34-9.73,8-19.46,6-23-16.34-34.38-45.34S289.33,8.32,289.64,0Z" style="fill: #3fc"/>
  <g>
    <path d="M138.61,312.89c-3.67,1.63-9.9,3-18.17,3-18.17,0-30.42-11-30.42-29.2,0-15.41,6.94-27.46,17.35-34.4,7.15-5,15.62-7.35,25.32-7.35,7.45,0,13.07,1.74,15,3l-4,11.94c-2-1-6.53-2.25-12.45-2.25a24.58,24.58,0,0,0-15.72,5.31c-5.82,4.7-9.49,12.56-9.49,22.15,0,10.92,6.13,18.27,18.27,18.27A36,36,0,0,0,137.38,301Z" style="fill: #09f"/>
    <path d="M145.86,314.83l13.88-72.48h14.7l-13.88,72.48Z" style="fill: #09f"/>
    <path d="M214.66,312c-5.82,3-13.07,3.88-18.58,3.88-14.29,0-21.64-8.06-21.64-21,0-15.21,11-31,29.09-31,10.11,0,17.35,5.62,17.35,14.9,0,12.76-12.35,17.35-32.36,16.84a9.85,9.85,0,0,0,1.53,5.1c1.94,2.55,5.31,3.88,9.6,3.88a31.39,31.39,0,0,0,14-3.16Zm-13-37.46c-6.84,0-10.72,5.61-11.74,10.31,11.43.1,17.15-1.53,17.15-6C207.11,276.24,205.07,274.51,201.7,274.51Z" style="fill: #09f"/>
    <path d="M256.72,314.83c.1-3,.41-6.33.71-9.9h-.31c-4.59,8.27-10.92,11-16.74,11-9,0-15.11-6.94-15.11-17.35,0-16.84,11.13-34.81,35.73-34.81a59.47,59.47,0,0,1,16.54,2.45l-5.31,26.13a120.73,120.73,0,0,0-1.94,22.46ZM261,275.33a22.76,22.76,0,0,0-4-.41c-9.49,0-16.44,11.64-16.44,20.93,0,4.9,1.94,8.27,6,8.27,4.39,0,9.8-5,12-17.25Z" style="fill: #09f"/>
    <path d="M281.12,314.83l6.33-33.69c1.22-6.33,2-11.84,2.65-16.23h13.07l-1,8.27h.2c4.7-6.53,10.92-9.39,17.56-9.39,8.17,0,12.76,5,12.76,13.58a62.49,62.49,0,0,1-.82,8.47l-5.51,29h-14.7l5.21-27.66a33.73,33.73,0,0,0,.51-5.61c0-3.47-1.23-5.92-4.9-5.92-4.8,0-10.41,6-12.46,17l-4.18,22.15Z" style="fill: #09f"/>
    <path d="M338.59,314.83l9.49-49.92h14.7l-9.49,49.92Zm11.53-63.29a8.36,8.36,0,0,1,8.47-8.37c4.29,0,7.35,2.86,7.35,7.25,0,5.21-4,8.27-8.68,8.27A6.8,6.8,0,0,1,350.13,251.54Z" style="fill: #09f"/>
    <path d="M365.64,314.83,372,281.14c1.22-6.33,2-11.84,2.65-16.23h13.07l-1,8.27h.2c4.7-6.53,10.92-9.39,17.56-9.39,8.17,0,12.76,5,12.76,13.58a62.49,62.49,0,0,1-.82,8.47l-5.51,29h-14.7l5.21-27.66a33.84,33.84,0,0,0,.51-5.61c0-3.47-1.23-5.92-4.9-5.92-4.8,0-10.41,6-12.45,17l-4.19,22.15Z" style="fill: #09f"/>
    <path d="M426.38,321.77c2.76,1.63,8.88,2.76,13.07,2.76,7.35,0,12.86-3.27,14.9-13.27l.82-4.18H455c-3.88,5-8.37,7.35-14.29,7.35-9.9,0-15.92-8.06-16-17.76,0-16.54,11.74-32.87,33.48-32.87a46.61,46.61,0,0,1,18.48,3.47l-7.55,41.14c-1.74,9.19-4.49,17.35-10.51,22.15-5.41,4.29-12.66,5.61-19.29,5.61S426.38,334.94,423,333Zm34.3-45.83a14.59,14.59,0,0,0-5.31-.92c-8.88,0-15.21,9.9-15.21,19.4,0,5,2.25,8.68,6.74,8.68,4.8,0,9.7-5.31,11.23-13.78Z" style="fill: #09f"/>
  </g>
  <g>
    <path d="M177.7,383c-1.91,1-6.13,2-11.46,2-14.1,0-22.67-8.83-22.67-22.34,0-14.63,10.15-23.46,23.72-23.46,5.34,0,9.16,1.12,10.81,2l-1.78,6.46a21.57,21.57,0,0,0-8.7-1.71c-9,0-15.55,5.67-15.55,16.34,0,9.75,5.73,16,15.48,16a22.69,22.69,0,0,0,8.83-1.65Z" style="fill: #09f"/>
    <path d="M213.74,368c0,11.79-8.3,17.06-16.47,17.06-9.09,0-16.08-6.26-16.08-16.54,0-10.54,6.92-17,16.6-17S213.74,358.23,213.74,368Zm-24.18.33c0,6.19,3,10.87,8,10.87,4.61,0,7.84-4.55,7.84-11,0-5-2.24-10.74-7.77-10.74C191.86,357.44,189.56,363,189.56,368.31Z" style="fill: #09f"/>
    <path d="M220.39,361.79c0-3.69-.07-6.79-.26-9.55h7l.33,4.74h.2a11.1,11.1,0,0,1,9.88-5.47,9.25,9.25,0,0,1,8.89,5.93h.13a12.15,12.15,0,0,1,4-4,10.72,10.72,0,0,1,6.46-1.91c5.34,0,10.74,3.62,10.74,13.9v18.91h-7.91V366.6c0-5.34-1.84-8.5-5.73-8.5a6.18,6.18,0,0,0-5.67,4.28,11.63,11.63,0,0,0-.4,2.7v19.24h-7.91V365.75c0-4.48-1.78-7.64-5.53-7.64a6.33,6.33,0,0,0-5.8,4.61,6.93,6.93,0,0,0-.46,2.64v19h-7.91Z" style="fill: #09f"/>
    <path d="M276.26,362.91c0-4.22-.13-7.64-.26-10.67h7.12l.4,4.94h.13a12.5,12.5,0,0,1,11-5.67c7.38,0,13.51,6.33,13.51,16.34,0,11.6-7.31,17.2-14.63,17.2-4,0-7.38-1.71-9-4.28h-.13v16.6h-8.1Zm8.1,8a8.32,8.32,0,0,0,.26,2.24,7.33,7.33,0,0,0,7.12,5.67c5.14,0,8.17-4.28,8.17-10.61,0-5.67-2.77-10.28-8-10.28a7.55,7.55,0,0,0-7.25,6,7.36,7.36,0,0,0-.33,2Z" style="fill: #09f"/>
    <path d="M332.86,384.33l-.53-3.56h-.2a11.92,11.92,0,0,1-9.49,4.28c-6.46,0-10.08-4.68-10.08-9.55,0-8.1,7.18-12.19,19-12.12v-.53c0-2.11-.86-5.6-6.52-5.6a17,17,0,0,0-8.63,2.37l-1.58-5.27a23.09,23.09,0,0,1,11.6-2.83c10.28,0,13.24,6.52,13.24,13.51v11.6a51.36,51.36,0,0,0,.46,7.71Zm-1.05-15.68c-5.73-.13-11.2,1.12-11.2,6a4.25,4.25,0,0,0,4.61,4.61,6.57,6.57,0,0,0,6.33-4.41,5.81,5.81,0,0,0,.26-1.78Z" style="fill: #09f"/>
    <path d="M348.27,361.79c0-3.69-.07-6.79-.26-9.55h7.12l.39,4.81h.2a11.57,11.57,0,0,1,10.21-5.53c5.6,0,11.4,3.62,11.4,13.77v19h-8.1V366.21c0-4.61-1.71-8.1-6.13-8.1a6.8,6.8,0,0,0-6.33,4.74,8.28,8.28,0,0,0-.33,2.64v18.84h-8.17Z" style="fill: #09f"/>
    <path d="M390,352.24l5.8,17.2c.66,2,1.32,4.41,1.78,6.26h.2c.53-1.85,1.12-4.22,1.71-6.33l5-17.13h8.7l-8,21.87c-4.42,12-7.38,17.33-11.2,20.62a16.3,16.3,0,0,1-8.5,4.15L383.59,392a13.88,13.88,0,0,0,4.74-2.24,14.14,14.14,0,0,0,4.42-5.07,3.26,3.26,0,0,0,.53-1.45,3.43,3.43,0,0,0-.46-1.58l-11.73-29.45Z" style="fill: #09f"/>
  </g>
  <g>
    <path d="M249.06,190.35H236.41v-6.79h33.54v6.79H257.17V228h-8.1Z" style="fill: #09f"/>
    <path d="M274.16,181.19h8.17V200.3h.13a10.88,10.88,0,0,1,4-3.69,11,11,0,0,1,5.53-1.45c5.47,0,11.2,3.62,11.2,13.9V228h-8.1V210c0-4.68-1.71-8.17-6.19-8.17a6.61,6.61,0,0,0-6.26,4.55,6.83,6.83,0,0,0-.33,2.44V228h-8.17Z" style="fill: #09f"/>
    <path d="M317.58,214.2c.2,5.8,4.74,8.3,9.88,8.3a24.12,24.12,0,0,0,8.89-1.45l1.19,5.6a30.21,30.21,0,0,1-11.2,2c-10.41,0-16.54-6.39-16.54-16.21,0-8.9,5.4-17.26,15.68-17.26s13.84,8.57,13.84,15.62a19.93,19.93,0,0,1-.26,3.43Zm14.1-5.67c.07-3-1.25-7.84-6.66-7.84-5,0-7.12,4.55-7.45,7.84Z" style="fill: #09f"/>
  </g>
</svg>
