<svg id="Layer_1" data-name="Layer 1" xmlns="http://www.w3.org/2000/svg" viewBox="0 0 427.97 425"><defs><style>.cls-1{fill:#3cf7b9;}.cls-2{font-size:76.93px;}.cls-2,.cls-5{fill:#0068ff;font-family:MyriadPro-Semibold, Myriad Pro;font-weight:700;}.cls-3{font-family:MyriadPro-BoldIt, Myriad Pro;font-style:italic;}.cls-4{letter-spacing:0em;}.cls-5{font-size:49.65px;}.cls-6{letter-spacing:-0.02em;}.cls-7{letter-spacing:-0.02em;}.cls-8{letter-spacing:-0.01em;}</style></defs><title>logo</title><path class="cls-1" d="M231.15,16.13c-2.7,17.85-8.55,46.46-17.11,57s-15.89,10.3-23.71,8.54-3.42-1.26-2.2,1.51,4.4,20.1-.49,27.38-19.8,6-24.93,5-.73,5.28-.73,5.28,10.75,24.12,9,35.92-4.4,18.59-12.46,19.85-13.93-6.78-13.93-6.78-11.73,3-19.06,1-16.62-9.29-18.58-11.81-1.71,8-9.78,10.8-8.07-6.78-19.8-14.32S63,155,49.31,145c-1.47-2.51-2.69,17.08,4.64,26.88S73.26,188.46,70.09,203,64,234.93,71.8,247.49s8.8,21.86,3.67,29.14-17.11,7.79-22.73,5.53-6.35-8.79-9.78-4-2.69,9.29-11,12.06S15.09,297,12.89,301.25c10.51,1.26,10.75,3,24,6.28s18.09,14.57,21.51,20.85,12,2.76,16.62,5.53,3.67,9.8,3.67,10.8,5.13-4.52,8.55,0S94,353,93.55,359s.24,6.78-4.15,10.3-9.53,7.79-9.53,7.79,10.27-1.76,18.33,5,13.44,8,23-2.76,14.91-16.33,24.44-15.83,13.2,5.53,13.2,5.53,5.13-18.34,20.53-30.65,46.45-16.59,47.66,12.81c-.62,40.33-1,57.77-2.44,73.35-1.47,11.57-3.17,14.31-1.22,16.08s9.42-2,9.53-5.78-5.37-24.76-3.91-64.56,12.84-37.44,21.26-37.68,16.38,13.06,21.75,24.87,8.07,12.06,17.84,10,19.8-3,29.33,5,30.55,14.32,40.82,14.57c9.65-.18,16.87-7.39,16.87-7.39s-18.58-9.44-15.15-23.26,12.46-11.3,21.26-13.57,8.31-10.55,12-15.83,12-9.55,19.31-12.06,26.65-6.89,26.65-6.89S430,300.5,425.46,297.59s-9.29-6.89-20.29-5.88-25.17-.5-26.4-15.58,6.84-25.88,15.15-32.41,14.91-12.06,7.58-16.58-16.62-7.54-9.78-23.11,27.62-45,27.62-45-20.53,8.79-27.86,8.79-10.27-3.52-11.49-6-8.07,4.27-15.64,7.54-26.64,11.3-33.24,5.53-6.11-9.8-11.73-2.76-7.09,8.29-12,10.55-15.15,7-14.91-12.56,7.09-38.94,9-43.46.49-3.52.49-3.52-16.86.5-20.53-8.29,1.71-25.62,1.71-25.62-7.33,6-14.66,4.52S251.2,81.44,242.64,59.58,230.92,22.39,231.15,16.13Z" transform="translate(-12.89 -16.13)"/><text class="cls-2" transform="translate(204.45 180.5)"> <tspan class="cls-3"><tspan x="-140.39" y="56.74">Cle</tspan><tspan class="cls-4" x="-36.62" y="56.74">a</tspan><tspan x="6.38" y="56.74">ning</tspan></tspan><tspan x="0" y="141.85"> </tspan></text><text class="cls-5" transform="translate(106.4 289.61)"><tspan class="cls-6">C</tspan><tspan x="28.4" y="0">ompa</tspan><tspan class="cls-7" x="152.77" y="0">n</tspan><tspan x="180.37" y="0">y</tspan></text><text class="cls-5" transform="translate(176.04 171.79)"><tspan class="cls-8">T</tspan><tspan x="25.57" y="0">he</tspan></text></svg>