<svg id="Layer_1" data-name="Layer 1" xmlns="http://www.w3.org/2000/svg" viewBox="0 0 407.36 403.84"><defs><style>.cls-1{fill:none;stroke:#fff;stroke-miterlimit:10;stroke-width:0.5px;}.cls-2{font-size:73.04px;}.cls-2,.cls-5,.cls-7{fill:#fff;font-family:MyriadPro-Semibold, Myriad Pro;font-weight:700;}.cls-3{font-family:MyriadPro-BoldIt, Myriad Pro;font-style:italic;}.cls-4{letter-spacing:0em;}.cls-5,.cls-7{font-size:47.14px;}.cls-6{letter-spacing:-0.02em;}.cls-7{letter-spacing:-0.01em;}.cls-8{letter-spacing:0em;}</style></defs><title>logo-bw</title><path class="cls-1" d="M223.11,13.45C220.55,30.4,215,57.56,206.86,67.6s-15.08,9.78-22.51,8.11-3.25-1.19-2.09,1.43,4.18,19.08-.46,26-18.8,5.72-23.67,4.77-.7,5-.7,5S167.64,135.82,166,147s-4.18,17.65-11.84,18.84S141,159.43,141,159.43s-11.14,2.86-18.1,1-15.78-8.83-17.64-11.21-1.62,7.63-9.28,10.26-7.66-6.44-18.8-13.6-13.69-.48-26.69-10C49,133.43,47.89,152,54.85,161.34s18.33,15.74,15.32,29.58-5.8,30.29,1.62,42.22,8.35,20.75,3.48,27.67S59,268.2,53.69,266.06s-6-8.35-9.28-3.82S41.86,271.07,34,273.69s-16,6.44-18.1,10.5c10,1.19,10.21,2.86,22.74,6S55.78,304,59,309.95s11.37,2.62,15.78,5.25,3.48,9.3,3.48,10.26,4.87-4.29,8.12,0,6.5,7.87,6,13.6.23,6.44-3.95,9.78-9.05,7.39-9.05,7.39,9.75-1.67,17.41,4.77,12.76,7.63,21.82-2.62,14.16-15.5,23.21-15,12.53,5.25,12.53,5.25,4.87-17.41,19.49-29.1,44.1-15.76,45.25,12.17c-.59,38.3-.92,54.85-2.32,69.65-1.4,11-3,13.58-1.16,15.27s8.94-1.92,9.05-5.49-5.1-23.51-3.71-61.3,12.19-35.55,20.19-35.78,15.55,12.4,20.65,23.62,7.66,11.45,16.94,9.54,18.8-2.86,27.85,4.77,29,13.6,38.76,13.84c9.16-.17,16-7,16-7s-17.64-9-14.39-22.08,11.84-10.73,20.19-12.88,7.89-10,11.37-15,11.37-9.06,18.33-11.45,25.31-6.54,25.31-6.54-10.29-7.3-14.63-10.06-8.82-6.54-19.26-5.59-23.9-.48-25.06-14.79,6.5-24.57,14.39-30.77,14.16-11.45,7.19-15.74-15.78-7.16-9.28-21.95,26.22-42.7,26.22-42.7-19.49,8.35-26.46,8.35-9.75-3.34-10.91-5.72-7.66,4.06-14.85,7.16-25.3,10.73-31.56,5.25-5.8-9.3-11.14-2.62-6.73,7.87-11.37,10-14.39,6.68-14.16-11.93,6.73-37,8.59-41.27.46-3.34.46-3.34-16,.48-19.49-7.87,1.62-24.33,1.62-24.33-7,5.72-13.92,4.29S242.14,75.47,234,54.71,222.88,19.4,223.11,13.45Z" transform="translate(-15.48 -13.41)"/><text class="cls-2" transform="translate(194.52 171.43)"> <tspan class="cls-3"><tspan x="-133.3" y="53.88">Cle</tspan><tspan class="cls-4" x="-34.77" y="53.88">a</tspan><tspan x="6.06" y="53.88">ning</tspan></tspan><tspan x="0" y="134.69"> </tspan></text><text class="cls-5" transform="translate(101.42 275.03)"><tspan class="cls-6">C</tspan><tspan x="26.97" y="0">ompa</tspan><tspan class="cls-6" x="145.06" y="0">n</tspan><tspan x="171.27" y="0">y</tspan></text><text class="cls-7" transform="translate(164.3 163.15)">T<tspan class="cls-8" x="24.28" y="0">he</tspan></text></svg>