<svg id="menu" xmlns="http://www.w3.org/2000/svg" viewBox="0 0 94 93.35"><defs><style>.cls-1{fill:#3cf7b9;}</style></defs><title>menu</title><g id="logo"><path class="cls-1" d="M50.94,3.4c-.59,3.92-1.88,10.2-3.76,12.53S43.69,18.19,42,17.8s-.75-.28-.48.33,1,4.41-.11,6-4.35,1.32-5.48,1.1-.16,1.16-.16,1.16,2.36,5.3,2,7.89-1,4.08-2.74,4.36-3.06-1.49-3.06-1.49a10.37,10.37,0,0,1-4.19.22,10.64,10.64,0,0,1-4.08-2.59c-.43-.55-.38,1.77-2.15,2.37S19.75,35.68,17.17,34,14,33.91,11,31.71c-.32-.55-.59,3.75,1,5.9s4.24,3.64,3.54,6.84-1.34,7,.38,9.77,1.93,4.8.81,6.4-3.76,1.71-5,1.21S10.36,59.9,9.6,61,9,63,7.19,63.6,3.48,65.09,3,66c2.31.28,2.36.66,5.26,1.38s4,3.2,4.72,4.58,2.63.61,3.65,1.21.81,2.15.81,2.37,1.13-1,1.88,0,1.5,1.82,1.4,3.15.05,1.49-.91,2.26-2.09,1.71-2.09,1.71a5.38,5.38,0,0,1,4,1.1c1.77,1.49,3,1.77,5-.61s3.27-3.59,5.37-3.48A3.83,3.83,0,0,1,35,80.92a14.64,14.64,0,0,1,4.51-6.73C42.94,71.49,49.76,70.55,50,77c-.14,8.86-.21,12.69-.54,16.11-.32,2.54-.7,3.14-.27,3.53s2.07-.44,2.09-1.27a72.11,72.11,0,0,1-.86-14.18c.32-8.74,2.82-8.22,4.67-8.28s3.6,2.87,4.78,5.46,1.77,2.65,3.92,2.21,4.35-.66,6.44,1.1,6.71,3.15,9,3.2a6,6,0,0,0,3.7-1.62s-4.08-2.07-3.33-5.11,2.74-2.48,4.67-3,1.83-2.32,2.63-3.48a9,9,0,0,1,4.24-2.65c1.61-.55,5.85-1.51,5.85-1.51s-2.38-1.69-3.38-2.33a5.94,5.94,0,0,0-4.46-1.29c-2.42.22-5.53-.11-5.8-3.42a8.11,8.11,0,0,1,3.33-7.12C88.52,52,90,50.74,88.36,49.75s-3.65-1.66-2.15-5.08,6.07-9.88,6.07-9.88-4.51,1.93-6.12,1.93a2.52,2.52,0,0,1-2.52-1.32c-.27-.55-1.77.94-3.44,1.66s-5.85,2.48-7.3,1.21-1.34-2.15-2.58-.61S68.76,39.49,67.69,40s-3.33,1.54-3.27-2.76a28.82,28.82,0,0,1,2-9.55c.43-1,.11-.77.11-.77S62.8,27,62,25.09s.38-5.63.38-5.63a4.48,4.48,0,0,1-3.22,1c-1.61-.33-3.81-2.7-5.69-7.5S50.89,4.78,50.94,3.4Z" transform="translate(-3 -3.4)"/></g></svg>